<svg width="24" height="24" viewBox="0 0 24 24" fill="none" xmlns="http://www.w3.org/2000/svg">
<path d="M12 5C10.2571 5 8.55325 5.51684 7.10404 6.48517C5.65483 7.4535 4.52531 8.82983 3.85832 10.4401C3.19132 12.0504 3.0168 13.8223 3.35683 15.5317C3.69687 17.2412 4.53618 18.8114 5.76863 20.0439C7.00108 21.2763 8.57131 22.1156 10.2808 22.4557C11.9902 22.7957 13.7621 22.6212 15.3724 21.9542C16.9827 21.2872 18.359 20.1577 19.3273 18.7085C20.2957 17.2593 20.8125 15.5554 20.8125 13.8125C20.8098 11.4761 19.8804 9.23621 18.2284 7.58414C16.5763 5.93206 14.3364 5.00273 12 5ZM12 21.5C10.4796 21.5 8.99326 21.0491 7.72906 20.2044C6.46485 19.3597 5.47953 18.1591 4.89768 16.7544C4.31583 15.3497 4.16359 13.804 4.46022 12.3127C4.75684 10.8215 5.489 9.45173 6.56412 8.37662C7.63924 7.3015 9.00902 6.56934 10.5002 6.27271C11.9915 5.97609 13.5372 6.12833 14.9419 6.71018C16.3466 7.29202 17.5472 8.27735 18.3919 9.54155C19.2366 10.8058 19.6875 12.2921 19.6875 13.8125C19.685 15.8506 18.8743 17.8045 17.4331 19.2456C15.992 20.6868 14.0381 21.4975 12 21.5ZM16.1475 9.665C16.2528 9.77047 16.312 9.91344 16.312 10.0625C16.312 10.2116 16.2528 10.3545 16.1475 10.46L12.3975 14.21C12.346 14.2653 12.2839 14.3096 12.2149 14.3403C12.1459 14.3711 12.0714 14.3876 11.9959 14.3889C11.9204 14.3903 11.8453 14.3764 11.7753 14.3481C11.7053 14.3198 11.6416 14.2777 11.5882 14.2243C11.5348 14.1709 11.4927 14.1072 11.4644 14.0372C11.4361 13.9672 11.4222 13.8921 11.4236 13.8166C11.4249 13.7411 11.4414 13.6666 11.4722 13.5976C11.5029 13.5286 11.5472 13.4665 11.6025 13.415L15.3525 9.665C15.458 9.55966 15.6009 9.50049 15.75 9.50049C15.8991 9.50049 16.042 9.55966 16.1475 9.665ZM9.1875 2.5625C9.1875 2.41332 9.24677 2.27024 9.35226 2.16475C9.45775 2.05926 9.60082 2 9.75 2H14.25C14.3992 2 14.5423 2.05926 14.6478 2.16475C14.7532 2.27024 14.8125 2.41332 14.8125 2.5625C14.8125 2.71168 14.7532 2.85476 14.6478 2.96025C14.5423 3.06574 14.3992 3.125 14.25 3.125H9.75C9.60082 3.125 9.45775 3.06574 9.35226 2.96025C9.24677 2.85476 9.1875 2.71168 9.1875 2.5625Z" fill="#FAFAFA"/>
</svg>
