<svg width="20" height="20" viewBox="0 0 20 20" fill="none" xmlns="http://www.w3.org/2000/svg">
<circle cx="10" cy="10" r="10" fill="#FE8E02"/>
<path fill-rule="evenodd" clip-rule="evenodd" d="M12.2954 6.50338C13.4809 6.93813 14.3348 7.58225 14.1391 8.81824C13.9909 9.71797 13.5192 10.1577 12.8818 10.3129C13.73 10.7875 14.1383 11.5078 13.7016 12.7714C13.1584 14.3561 11.9426 14.4998 10.3323 14.1929L9.91775 15.8653L8.9821 15.6336L9.39665 13.9611C9.29484 13.934 9.18755 13.909 9.07751 13.8834C8.93046 13.8492 8.77851 13.8138 8.62814 13.7707L8.21358 15.4432L7.27963 15.2119L7.6942 13.5393L5.83374 13.0329L6.29617 11.8503C6.29617 11.8503 6.99839 12.0433 6.9875 12.0312C7.24795 12.0945 7.37531 11.9127 7.42748 11.7853L8.09137 9.10407L8.57453 7.19837C8.59541 6.99238 8.53086 6.7229 8.15031 6.62037C8.17621 6.6052 7.46524 6.45068 7.46524 6.45068L7.74229 5.32992L9.65976 5.8049L10.0658 4.16663L11.0318 4.40592L10.6258 6.04419C10.8136 6.08501 10.9971 6.13245 11.1826 6.18042L11.1827 6.18044C11.2436 6.19618 11.3047 6.21198 11.3662 6.22762L11.7723 4.58934L12.7122 4.82216L12.2954 6.50338ZM9.73216 9.13769C9.74677 9.14205 9.76241 9.14675 9.77902 9.15173C10.3408 9.32047 12.0063 9.82077 12.2869 8.70683C12.5481 7.64798 11.1052 7.32457 10.4347 7.17429C10.3555 7.15654 10.2871 7.14121 10.2335 7.12736L9.73216 9.13769ZM8.99301 12.4405C8.96349 12.4317 8.93628 12.4236 8.91161 12.4164L9.41297 10.4061C9.47221 10.4214 9.54714 10.439 9.63379 10.4594C10.4242 10.645 12.1895 11.0597 11.9151 12.1244C11.6488 13.23 9.68503 12.6463 8.99301 12.4405Z" fill="#FAFAFA"/>
</svg>
