<svg width="20" height="20" viewBox="0 0 20 20" fill="none" xmlns="http://www.w3.org/2000/svg">
<path d="M10.0263 13.5947C10.0857 13.6541 10.1329 13.7245 10.165 13.8021C10.1972 13.8796 10.2137 13.9628 10.2137 14.0467C10.2137 14.1307 10.1972 14.2138 10.165 14.2914C10.1329 14.369 10.0857 14.4394 10.0263 14.4987L7.47079 17.0543C7.41145 17.1137 7.34099 17.1608 7.26343 17.193C7.18587 17.2251 7.10273 17.2417 7.01877 17.2417C6.93481 17.2417 6.85168 17.2251 6.77412 17.193C6.69656 17.1608 6.6261 17.1137 6.56676 17.0543L4.0112 14.4987C3.95185 14.4394 3.90476 14.3689 3.87263 14.2914C3.84051 14.2138 3.82397 14.1307 3.82397 14.0467C3.82397 13.9628 3.84051 13.8797 3.87263 13.8021C3.90476 13.7245 3.95185 13.6541 4.0112 13.5947C4.13109 13.4748 4.29368 13.4075 4.46322 13.4075C4.54717 13.4075 4.63029 13.424 4.70785 13.4562C4.7854 13.4883 4.85587 13.5354 4.91523 13.5947L6.37989 15.0602V3.82451C6.37989 3.65507 6.4472 3.49256 6.56701 3.37275C6.68683 3.25293 6.84933 3.18562 7.01877 3.18562C7.18822 3.18562 7.35072 3.25293 7.47054 3.37275C7.59035 3.49256 7.65766 3.65507 7.65766 3.82451V15.0602L9.12232 13.5947C9.18165 13.5353 9.25211 13.4882 9.32967 13.456C9.40723 13.4239 9.49037 13.4073 9.57433 13.4073C9.65829 13.4073 9.74143 13.4239 9.81899 13.456C9.89655 13.4882 9.96701 13.5353 10.0263 13.5947ZM17.693 5.92805L15.1375 3.3725C15.0781 3.3131 15.0077 3.26597 14.9301 3.23382C14.8525 3.20167 14.7694 3.18512 14.6854 3.18512C14.6015 3.18512 14.5183 3.20167 14.4408 3.23382C14.3632 3.26597 14.2928 3.3131 14.2334 3.3725L11.6779 5.92805C11.558 6.04793 11.4906 6.21053 11.4906 6.38007C11.4906 6.54961 11.558 6.7122 11.6779 6.83208C11.7978 6.95196 11.9603 7.01931 12.1299 7.01931C12.2994 7.01931 12.462 6.95196 12.5819 6.83208L14.0466 5.36663V16.6023C14.0466 16.7717 14.1139 16.9342 14.2337 17.0541C14.3535 17.1739 14.516 17.2412 14.6854 17.2412C14.8549 17.2412 15.0174 17.1739 15.1372 17.0541C15.257 16.9342 15.3243 16.7717 15.3243 16.6023V5.36663L16.789 6.83208C16.9089 6.95196 17.0715 7.01931 17.241 7.01931C17.4105 7.01931 17.5731 6.95196 17.693 6.83208C17.8129 6.7122 17.8802 6.54961 17.8802 6.38007C17.8802 6.21053 17.8129 6.04793 17.693 5.92805Z" fill="#FAFAFA"/>
</svg>
