<svg width="24" height="24" viewBox="0 0 24 24" fill="none" xmlns="http://www.w3.org/2000/svg">
<path d="M21.3103 6.87842L17.1216 2.68873C16.9823 2.5494 16.8169 2.43888 16.6349 2.36348C16.4529 2.28808 16.2578 2.24927 16.0608 2.24927C15.8638 2.24927 15.6687 2.28808 15.4867 2.36348C15.3047 2.43888 15.1393 2.5494 15 2.68873L3.43969 14.25C3.2998 14.3888 3.18889 14.554 3.11341 14.736C3.03792 14.918 2.99938 15.1132 3.00001 15.3103V19.5C3.00001 19.8978 3.15804 20.2793 3.43935 20.5606C3.72065 20.8419 4.10218 21 4.50001 21H8.6897C8.88675 21.0006 9.08197 20.9621 9.26399 20.8866C9.44602 20.8111 9.61122 20.7002 9.75001 20.5603L21.3103 8.99998C21.4496 8.86069 21.5602 8.69531 21.6356 8.5133C21.711 8.33129 21.7498 8.13621 21.7498 7.9392C21.7498 7.74219 21.711 7.5471 21.6356 7.36509C21.5602 7.18308 21.4496 7.01771 21.3103 6.87842ZM8.6897 19.5H4.50001V15.3103L12.75 7.06029L16.9397 11.25L8.6897 19.5ZM18 10.1887L13.8103 5.99998L16.0603 3.74998L20.25 7.93873L18 10.1887Z" fill="white"/>
</svg>
