<svg width="20" height="20" viewBox="0 0 20 20" fill="none" xmlns="http://www.w3.org/2000/svg">
<path d="M10 2.03125C8.42393 2.03125 6.88326 2.49861 5.5728 3.37423C4.26235 4.24984 3.24097 5.49439 2.63784 6.95049C2.0347 8.40659 1.87689 10.0088 2.18437 11.5546C2.49185 13.1004 3.2508 14.5203 4.36525 15.6348C5.4797 16.7492 6.89959 17.5082 8.44538 17.8156C9.99116 18.1231 11.5934 17.9653 13.0495 17.3622C14.5056 16.759 15.7502 15.7377 16.6258 14.4272C17.5014 13.1167 17.9688 11.5761 17.9688 10C17.9663 7.88732 17.1259 5.86188 15.632 4.36798C14.1381 2.87409 12.1127 2.03373 10 2.03125ZM17.0313 10C17.0321 10.964 16.8337 11.9178 16.4484 12.8016L12.8008 10.5586C12.6712 10.4771 12.5258 10.4239 12.3742 10.4023L10.5914 10.1625C10.3613 10.1327 10.1277 10.1765 9.92407 10.2877C9.72043 10.3988 9.55721 10.5716 9.45782 10.7812H8.68282C8.65345 10.7812 8.62468 10.7729 8.59981 10.7573C8.57493 10.7417 8.55497 10.7194 8.54219 10.693L8.24532 10.0789C8.17317 9.92899 8.06764 9.79759 7.93682 9.6948C7.80599 9.59201 7.65336 9.52056 7.49063 9.48594L6.65391 9.30625L7.375 8.04688C7.38877 8.02303 7.40859 8.00325 7.43246 7.98953C7.45634 7.97581 7.48341 7.96864 7.51094 7.96875H8.81641C9.00122 7.96886 9.18299 7.9218 9.34453 7.83203L10.3016 7.30469C10.375 7.26337 10.4436 7.21411 10.5063 7.15781L12.6086 5.25703C12.793 5.09156 12.9154 4.86812 12.9556 4.62365C12.9958 4.37918 12.9514 4.12831 12.8297 3.9125L12.5781 3.45703C13.8904 3.97606 15.0165 4.87729 15.8106 6.04393C16.6046 7.21056 17.0298 8.5888 17.0313 10ZM11.2969 3.08906L12.0117 4.36953C12.0289 4.40046 12.0351 4.43631 12.0293 4.47123C12.0235 4.50614 12.006 4.53805 11.9797 4.56172L9.87735 6.4625C9.86863 6.47071 9.85892 6.47779 9.84844 6.48359L8.89141 7.01172C8.86752 7.02494 8.84059 7.03168 8.81328 7.03125H7.51094C7.31874 7.03104 7.12988 7.08147 6.96337 7.17748C6.79687 7.27349 6.6586 7.41167 6.5625 7.57812L5.71719 9.05547C5.71135 9.04687 5.70637 9.03771 5.70235 9.02812L4.80469 6.63203C4.78991 6.59491 4.78991 6.55353 4.80469 6.51641L5.67813 4.45781C6.46385 3.84389 7.37129 3.4043 8.34009 3.1683C9.30889 2.9323 10.3168 2.90529 11.2969 3.08906ZM2.96875 10C2.96756 8.80285 3.27368 7.62543 3.85782 6.58047C3.85795 6.71044 3.88151 6.83932 3.92735 6.96094L4.825 9.35703C4.88885 9.52895 4.99508 9.68196 5.13384 9.80187C5.2726 9.92178 5.4394 10.0047 5.61875 10.043L7.29375 10.4023C7.31702 10.4074 7.33884 10.4177 7.35752 10.4324C7.37621 10.4472 7.39127 10.466 7.40157 10.4875L7.69844 11.1016C7.78849 11.2861 7.92844 11.4418 8.10242 11.5508C8.2764 11.6599 8.47747 11.7181 8.68282 11.7188H9.03907L8.37578 13.2031C8.28876 13.3985 8.26095 13.6152 8.2958 13.8263C8.33066 14.0373 8.42664 14.2336 8.57188 14.3906L8.57969 14.3992L10.1172 15.982C10.1329 16 10.1443 16.0212 10.1506 16.0443C10.1568 16.0673 10.1577 16.0914 10.1531 16.1148L9.97657 17.0312C8.11646 17.023 6.33525 16.2788 5.02214 14.9613C3.70903 13.6438 2.9708 11.8601 2.96875 10ZM10.9438 16.968L11.0742 16.2961C11.1063 16.1276 11.0985 15.9539 11.0514 15.7889C11.0043 15.624 10.9193 15.4723 10.8031 15.3461L10.7953 15.3375L9.25782 13.7547C9.23792 13.7322 9.22491 13.7045 9.22034 13.6749C9.21577 13.6452 9.21983 13.6149 9.23203 13.5875L10.3023 11.1867C10.3159 11.155 10.3396 11.1287 10.3697 11.1119C10.3998 11.0951 10.4346 11.0887 10.4688 11.0938L12.2516 11.3344C12.2731 11.3371 12.2939 11.3443 12.3125 11.3555L16.0156 13.6367C15.4719 14.5348 14.7342 15.3 13.8567 15.8764C12.9792 16.4527 11.9839 16.8257 10.9438 16.968Z" fill="#A0A0A0"/>
</svg>
