<svg width="306" height="306" viewBox="0 0 306 306" fill="none" xmlns="http://www.w3.org/2000/svg">
<g filter="url(#filter0_f_2691_73)">
<path d="M229.5 209L153.5 264.5V157L229.5 209ZM229.5 96L153.5 151.5V44L229.5 96Z" fill="#468EFF"/>
</g>
<path d="M229.5 209L153.5 264.5V157L229.5 209ZM229.5 96L153.5 151.5V44L229.5 96Z" fill="#01183C"/>
<path d="M153.34 34.4844C153.952 34.5396 154.54 34.7428 155.054 35.0752L155.269 35.2246L231.769 92.5996C232.179 92.9078 232.523 93.2963 232.778 93.7402L232.882 93.9336C233.144 94.4586 233.281 95.038 233.281 95.625C233.281 96.1388 233.177 96.6465 232.975 97.1172L232.882 97.3164C232.652 97.7756 232.331 98.1822 231.94 98.5127L231.769 98.6504L160.373 152.2L159.306 153L160.373 153.8L231.769 207.35C232.179 207.658 232.523 208.046 232.778 208.49L232.882 208.684C233.144 209.209 233.281 209.788 233.281 210.375C233.281 210.889 233.177 211.396 232.975 211.866L232.882 212.066C232.619 212.591 232.238 213.048 231.769 213.4L155.269 270.775C154.777 271.144 154.204 271.386 153.601 271.483L153.34 271.516C152.728 271.571 152.113 271.476 151.548 271.241L151.309 271.132C150.759 270.857 150.287 270.453 149.93 269.956L149.783 269.738C149.414 269.141 149.219 268.452 149.219 267.75V160.562L147.619 161.763L78.7686 213.4C78.0164 213.964 77.083 214.227 76.1514 214.141L75.9648 214.118C75.0342 213.985 74.1886 213.511 73.5908 212.791L73.4746 212.644C72.8731 211.841 72.615 210.832 72.7568 209.84C72.8899 208.909 73.3642 208.064 74.084 207.466L74.2314 207.35L145.627 153.8L146.694 153L145.627 152.2L74.2314 98.6504C73.4793 98.0863 72.9662 97.2633 72.7881 96.3447L72.7568 96.1602C72.6239 95.2294 72.8425 94.2843 73.3662 93.5088L73.4746 93.3564C74.0387 92.6043 74.8617 92.0912 75.7803 91.9131L75.9648 91.8818C76.3948 91.8204 76.8322 91.8332 77.2568 91.9199L77.4385 91.9619C77.8594 92.0697 78.258 92.2494 78.6172 92.4922L78.7686 92.5996L147.619 144.237L149.219 145.438V38.25C149.219 37.6356 149.369 37.0318 149.653 36.4902L149.783 36.2617C150.106 35.7391 150.551 35.3041 151.078 34.9932L151.309 34.8682C151.858 34.5934 152.465 34.4572 153.077 34.4697L153.34 34.4844ZM156.781 260.188L158.381 258.987L222.127 211.175L223.194 210.375L222.127 209.575L158.381 161.763L156.781 160.562V260.188ZM156.781 145.438L158.381 144.237L222.127 96.4248L223.194 95.625L222.127 94.8252L158.381 47.0127L156.781 45.8125V145.438Z" fill="white" stroke="#01183C" stroke-width="2"/>
<defs>
<filter id="filter0_f_2691_73" x="129.5" y="20" width="124" height="268.5" filterUnits="userSpaceOnUse" color-interpolation-filters="sRGB">
<feFlood flood-opacity="0" result="BackgroundImageFix"/>
<feBlend mode="normal" in="SourceGraphic" in2="BackgroundImageFix" result="shape"/>
<feGaussianBlur stdDeviation="12" result="effect1_foregroundBlur_2691_73"/>
</filter>
</defs>
</svg>
