<svg width="16" height="16" viewBox="0 0 16 16" fill="none" xmlns="http://www.w3.org/2000/svg">
<path d="M14.7083 7.29503L8.70519 1.29128C8.51783 1.10503 8.26437 1.00049 8.00019 1.00049C7.736 1.00049 7.48255 1.10503 7.29519 1.29128L1.29519 7.29503C1.10894 7.48239 1.00439 7.73585 1.00439 8.00003C1.00439 8.26422 1.10894 8.51767 1.29519 8.70503L7.29831 14.7088C7.48568 14.895 7.73913 14.9996 8.00331 14.9996C8.2675 14.9996 8.52095 14.895 8.70831 14.7088L14.7114 8.70503C14.8977 8.51767 15.0022 8.26422 15.0022 8.00003C15.0022 7.73585 14.8977 7.48239 14.7114 7.29503H14.7083ZM7.50019 5.00003C7.50019 4.86742 7.55287 4.74025 7.64664 4.64648C7.7404 4.55271 7.86758 4.50003 8.00019 4.50003C8.1328 4.50003 8.25997 4.55271 8.35374 4.64648C8.44751 4.74025 8.50019 4.86742 8.50019 5.00003V8.50003C8.50019 8.63264 8.44751 8.75982 8.35374 8.85358C8.25997 8.94735 8.1328 9.00003 8.00019 9.00003C7.86758 9.00003 7.7404 8.94735 7.64664 8.85358C7.55287 8.75982 7.50019 8.63264 7.50019 8.50003V5.00003ZM8.00019 11.5C7.85185 11.5 7.70685 11.456 7.58351 11.3736C7.46017 11.2912 7.36404 11.1741 7.30728 11.037C7.25051 10.9 7.23566 10.7492 7.2646 10.6037C7.29354 10.4582 7.36497 10.3246 7.46986 10.2197C7.57475 10.1148 7.70838 10.0434 7.85387 10.0144C7.99936 9.9855 8.15016 10.0004 8.2872 10.0571C8.42424 10.1139 8.54138 10.21 8.62379 10.3334C8.7062 10.4567 8.75019 10.6017 8.75019 10.75C8.75019 10.9489 8.67117 11.1397 8.53052 11.2804C8.38987 11.421 8.1991 11.5 8.00019 11.5Z" fill="#FF6467"/>
</svg>
