<svg width="20" height="20" viewBox="0 0 20 20" fill="none" xmlns="http://www.w3.org/2000/svg">
<path d="M16.25 3.28125H3.75C3.45992 3.28125 3.18172 3.39648 2.9766 3.6016C2.77148 3.80672 2.65625 4.08492 2.65625 4.375V8.75C2.65625 12.8078 4.61875 15.2656 6.26562 16.6125C8.04141 18.0656 9.80234 18.557 9.87656 18.5773C9.95738 18.5994 10.0426 18.5994 10.1234 18.5773C10.1977 18.557 11.9586 18.0656 13.7344 16.6125C15.3813 15.2656 17.3438 12.8078 17.3438 8.75V4.375C17.3438 4.08492 17.2285 3.80672 17.0234 3.6016C16.8183 3.39648 16.5401 3.28125 16.25 3.28125ZM16.4062 8.75C16.4062 11.7 15.3172 14.093 13.1687 15.8641C12.2263 16.638 11.1532 17.2375 10 17.6344C8.84667 17.2379 7.77353 16.6383 6.83125 15.8641C4.68281 14.093 3.59375 11.7 3.59375 8.75V4.375C3.59375 4.33356 3.61021 4.29382 3.63951 4.26451C3.66882 4.23521 3.70856 4.21875 3.75 4.21875H16.25C16.2914 4.21875 16.3312 4.23521 16.3605 4.26451C16.3898 4.29382 16.4062 4.33356 16.4062 4.375V8.75ZM13.4563 7.79375C13.544 7.88164 13.5933 8.00078 13.5933 8.125C13.5933 8.24922 13.544 8.36836 13.4563 8.45625L9.08125 12.8313C8.99336 12.919 8.87422 12.9683 8.75 12.9683C8.62578 12.9683 8.50664 12.919 8.41875 12.8313L6.54375 10.9563C6.46095 10.8674 6.41587 10.7499 6.41802 10.6284C6.42016 10.507 6.46935 10.3911 6.55524 10.3052C6.64112 10.2194 6.75699 10.1702 6.87842 10.168C6.99986 10.1659 7.11739 10.2109 7.20625 10.2937L8.75 11.8367L12.7937 7.79375C12.8816 7.70597 13.0008 7.65666 13.125 7.65666C13.2492 7.65666 13.3684 7.70597 13.4563 7.79375Z" fill="#A0A0A0"/>
</svg>
