<svg width="222" height="220" viewBox="0 0 222 220" fill="none" xmlns="http://www.w3.org/2000/svg">
<path d="M18.9581 172.433L47.7068 178.014C48.7575 178.218 49.8299 178.288 50.8982 178.223L193.258 169.467C198.673 169.134 202.931 164.711 203.058 159.287L205.354 61.2136C205.441 57.536 203.073 54.2488 199.558 53.1647L169.836 43.998" stroke="white" stroke-width="0.444412"/>
<path d="M168.924 43.3154C169.646 43.191 170.389 43.2383 171.092 43.4551L199.82 52.3154L200.182 52.4355C203.757 53.7031 206.176 57.0605 206.244 60.8535L206.243 61.2344L203.946 159.308C203.813 165.008 199.473 169.691 193.86 170.307L193.312 170.354L50.9531 179.109C49.9527 179.171 48.9486 179.122 47.96 178.962L47.5371 178.887L19.3633 173.417C18.9696 173.341 18.5348 173.211 18.127 172.968L17.9531 172.856C16.6057 171.923 15.8429 170.631 15.4678 169.653L15.3311 169.256C15.1949 168.812 15.1906 168.377 15.2168 168.017L21.4277 82.4561L21.4453 82.2676C21.6649 80.3292 23.0718 78.7233 24.9805 78.2598L168.615 43.3799L168.924 43.3154Z" fill="#00384B" stroke="white" stroke-width="1.77765"/>
<path d="M16.0377 167.233L21.5314 86.176C21.7856 82.4255 24.4289 79.2665 28.0758 78.3548L165.906 43.8972C170.615 42.7199 175.148 46.3603 175.015 51.2124L172.263 151.357C172.084 157.888 166.966 163.211 160.447 163.646L21.7139 172.915C18.4918 173.13 15.8193 170.455 16.0377 167.233Z" fill="#00384B" stroke="white" stroke-width="0.444412"/>
<path d="M190.004 118.666L191.333 92.0802C191.356 91.6362 191.757 91.3088 192.197 91.3764L194.548 91.7382C194.599 91.746 194.649 91.7591 194.697 91.7771C195.385 92.0344 196.654 92.5 196.75 92.5C196.843 92.5 197.381 93.3006 197.689 93.7795C197.73 93.8428 197.76 93.9119 197.78 93.9845L198.096 95.144C198.115 95.2143 198.124 95.287 198.122 95.3598L197.5 120.625L197.278 122.178C197.26 122.307 197.208 122.429 197.128 122.532L196.487 123.356C196.413 123.451 196.318 123.526 196.209 123.576L194.955 124.155C194.821 124.217 194.672 124.238 194.527 124.216L193.32 124.03C193.192 124.01 193.072 123.958 192.97 123.878L191.49 122.715C191.414 122.656 191.35 122.582 191.302 122.498L190.44 120.988C190.397 120.913 190.367 120.832 190.352 120.747L190.015 118.833C190.005 118.778 190.001 118.722 190.004 118.666Z" fill="#002632"/>
<path d="M191.354 91.2166L195.515 92.0014C195.795 92.0542 196.072 92.1316 196.319 92.2745C197.51 92.9654 198.242 94.261 198.198 95.6601L197.398 121.169C197.336 123.148 195.489 124.582 193.556 124.152M200.487 120.35L201.003 91.6843C201.034 89.9684 199.905 88.4472 198.253 87.9809L196.172 87.3933C193.837 86.7341 191.495 88.415 191.373 90.8378L189.98 118.359C189.832 121.289 191.824 123.896 194.69 124.523L195.094 124.611C197.833 125.211 200.436 123.154 200.487 120.35ZM143.461 133.54L160.37 131.015C162.182 130.744 163.539 129.212 163.588 127.38L164.929 77.373C164.995 74.9209 162.743 73.0575 160.346 73.5814L144.024 77.1494C142.344 77.5167 141.124 78.9726 141.057 80.6912L139.129 129.655C139.036 132.022 141.119 133.89 143.461 133.54Z" stroke="white" stroke-width="0.444412"/>
<path d="M70.9048 172.899L91.7938 175.681C92.3947 175.762 92.3616 176.641 91.7564 176.676L49.6011 179.098C49.285 179.116 48.9678 179.094 48.657 179.033L35.8137 176.513C35.7713 176.504 35.7297 176.492 35.6894 176.477C34.9414 176.189 35.1106 175.085 35.9104 175.035L70.168 172.873C70.4139 172.857 70.6606 172.866 70.9048 172.899Z" fill="#002632" stroke="white" stroke-width="0.444412"/>
<path d="M142.213 171.589L137.118 170.143C136.637 170.007 136.713 169.303 137.212 169.272L152.031 168.352C152.345 168.332 152.66 168.352 152.97 168.411L160.165 169.778C160.678 169.875 160.632 170.625 160.111 170.658L143.486 171.725C143.057 171.752 142.627 171.706 142.213 171.589Z" stroke="white" stroke-width="0.444412"/>
</svg>
