<svg width="222" height="222" viewBox="0 0 222 222" fill="none" xmlns="http://www.w3.org/2000/svg">
<path d="M90.227 175.429L57.8742 61.3078C57.4948 59.9698 57.4697 58.5561 57.8013 57.2055L58.7782 53.2263L59.1489 52.1143C59.5195 53.597 59.7169 54.976 59.8783 56.1708C70.5864 94.6743 91.4862 172.105 92.0027 173.799C93.0458 177.221 94.9085 181.809 97.3299 182.597C93.3264 181.294 90.9265 177.275 90.227 175.429Z" fill="white"/>
<path d="M109.997 43.6355L68.3723 50.8056C64.8209 51.4174 62.5713 54.9583 63.5265 58.4331L94.8961 172.551C96.0798 176.857 100.551 179.368 104.845 178.138L149.995 165.203C154.414 163.937 156.868 159.226 155.374 154.879L118.949 48.9352C117.669 45.212 113.877 42.9672 109.997 43.6355Z" fill="#00384B" stroke="white" stroke-width="0.321018"/>
<path d="M110.988 40.7179L64.8728 48.6927C61.1579 49.3351 58.8085 53.043 59.8141 56.6764L92.923 176.311C94.1647 180.798 98.8217 183.415 103.3 182.144L153.837 167.798C158.495 166.476 161.07 161.497 159.457 156.932L120.328 46.1899C118.965 42.3327 115.019 40.0207 110.988 40.7179Z" stroke="white" stroke-width="2.22414"/>
<path d="M100.791 53.5804L86.2026 56.1767C85.0843 56.3757 84.0063 55.6633 83.7509 54.5565C83.4755 53.3631 84.2596 52.1835 85.4666 51.9754L100.069 49.4577C101.097 49.2804 102.099 49.8881 102.418 50.8822C102.804 52.0885 102.038 53.3585 100.791 53.5804Z" stroke="white" stroke-width="0.321018"/>
<g clip-path="url(#clip0_1033_4522)">
<path d="M128.133 82.4581C127.684 80.3774 127.647 78.229 128.024 76.1342C128.597 72.8851 130.121 69.8789 132.402 67.4956C134.684 65.1124 137.621 63.4592 140.842 62.7452C144.063 62.0311 147.423 62.2882 150.498 63.4839C153.573 64.6797 156.224 66.7604 158.116 69.463C160.009 72.1655 161.057 75.3685 161.129 78.6669C161.201 81.9653 160.293 85.211 158.521 87.9935C156.748 90.776 154.19 92.9704 151.17 94.2991C148.15 95.6279 144.804 96.0313 141.555 95.4584C139.458 95.0967 137.452 94.3273 135.65 93.1938L132.107 95.6745L126.631 94.7089L125.666 100.185L120.19 99.2192L119.224 104.695L110.098 103.086L111.707 93.9594L128.133 82.4581Z" fill="#00384B" stroke="white" stroke-width="1.52724" stroke-linecap="round" stroke-linejoin="round"/>
<path d="M149.498 77.0979C150.507 77.2757 151.468 76.6026 151.646 75.5945C151.823 74.5864 151.15 73.6251 150.142 73.4473C149.134 73.2696 148.173 73.9427 147.995 74.9508C147.817 75.9589 148.49 76.9202 149.498 77.0979Z" fill="white"/>
</g>
<g clip-path="url(#clip1_1033_4522)">
<path d="M139.636 95.7275C138.32 94.0542 137.345 92.1393 136.766 90.091C135.857 86.9196 135.908 83.5498 136.914 80.4076C137.92 77.2655 139.835 74.4922 142.417 72.4384C144.999 70.3846 148.132 69.1426 151.42 68.8694C154.708 68.5962 158.003 69.3041 160.888 70.9035C163.774 72.503 166.12 74.9222 167.631 77.8553C169.141 80.7883 169.748 84.1035 169.375 87.3814C169.001 90.6594 167.664 93.7531 165.533 96.2711C163.401 98.7892 160.57 100.619 157.399 101.528C155.355 102.122 153.215 102.31 151.098 102.081L149.002 105.864L143.657 107.397L145.189 112.742L139.844 114.274L141.377 119.619L132.469 122.174L129.914 113.265L139.636 95.7275Z" fill="#00384B" stroke="white" stroke-width="1.52724" stroke-linecap="round" stroke-linejoin="round"/>
<path d="M156.489 81.5436C157.473 81.2615 158.042 80.2351 157.76 79.2511C157.478 78.2671 156.451 77.6982 155.467 77.9803C154.483 78.2625 153.914 79.2889 154.196 80.2729C154.479 81.2568 155.505 81.8258 156.489 81.5436Z" fill="white"/>
</g>
<path opacity="0.3" d="M41.3557 0.588671L61.8016 56.1523L96.5884 179.632L151.523 67.9856L190.744 0.588668L41.3557 0.588671Z" fill="url(#paint0_linear_1033_4522)"/>
<defs>
<linearGradient id="paint0_linear_1033_4522" x1="101.212" y1="1.57928" x2="86.9289" y2="103.206" gradientUnits="userSpaceOnUse">
<stop stop-color="#00BCFF" stop-opacity="0"/>
<stop offset="0.269342" stop-color="#00BCFF" stop-opacity="0.2"/>
<stop offset="1" stop-color="#00BCFF" stop-opacity="0.5"/>
</linearGradient>
<clipPath id="clip0_1033_4522">
<rect width="59.3103" height="59.3103" fill="white" transform="translate(111.809 50.6904) rotate(10)"/>
</clipPath>
<clipPath id="clip1_1033_4522">
<rect width="59.3103" height="59.3103" fill="white" transform="translate(111.038 74.3311) rotate(-16)"/>
</clipPath>
</defs>
</svg>
