<svg width="255" height="218" viewBox="0 0 255 218" fill="none" xmlns="http://www.w3.org/2000/svg">
<path d="M104.094 201.861L66.7411 70.1034C66.3031 68.5586 66.2742 66.9265 66.657 65.3671L67.7848 60.7729L68.2128 59.489C68.6407 61.2009 68.8685 62.7931 69.0549 64.1725C81.418 108.627 105.548 198.024 106.144 199.98C107.348 203.93 109.499 209.227 112.295 210.137C107.672 208.632 104.902 203.993 104.094 201.861Z" fill="white"/>
<path d="M126.92 49.7002L78.8617 57.9784C74.7615 58.6847 72.1642 62.7729 73.267 66.7847L109.485 198.538C110.851 203.51 116.014 206.41 120.971 204.99L173.099 190.056C178.2 188.594 181.034 183.154 179.309 178.136L137.255 55.8189C135.777 51.5203 131.399 48.9286 126.92 49.7002Z" fill="#00183C" stroke="white" stroke-width="0.37063"/>
<path d="M128.063 46.3314L74.8213 55.5387C70.5323 56.2805 67.8198 60.5613 68.9808 64.7563L107.207 202.88C108.64 208.06 114.017 211.082 119.187 209.615L177.535 193.052C182.912 191.525 185.885 185.777 184.023 180.506L138.847 52.6492C137.273 48.1958 132.717 45.5266 128.063 46.3314Z" stroke="white" stroke-width="2.56787"/>
<path d="M116.29 61.1821L99.4475 64.1796C98.1564 64.4094 96.9117 63.5869 96.6169 62.3091C96.2989 60.9312 97.2042 59.5693 98.5977 59.329L115.457 56.4223C116.644 56.2175 117.801 56.9192 118.168 58.0669C118.614 59.4596 117.73 60.9259 116.29 61.1821Z" stroke="white" stroke-width="0.37063"/>
<g clip-path="url(#clip0_2062_2285)">
<path d="M147.858 94.5229C147.339 92.1207 147.297 89.6401 147.733 87.2216C148.394 83.4704 150.153 79.9996 152.787 77.248C155.421 74.4965 158.812 72.5878 162.531 71.7634C166.25 70.939 170.129 71.2358 173.679 72.6163C177.23 73.9969 180.29 76.3992 182.475 79.5194C184.66 82.6396 185.871 86.3376 185.954 90.1458C186.037 93.9539 184.989 97.7012 182.942 100.914C180.896 104.126 177.942 106.66 174.456 108.194C170.969 109.728 167.106 110.194 163.355 109.532C160.933 109.115 158.617 108.226 156.537 106.918L152.446 109.782L146.124 108.667L145.01 114.989L138.687 113.874L137.573 120.197L127.036 118.339L128.894 107.802L147.858 94.5229Z" fill="#00183C" stroke="white" stroke-width="1.76327" stroke-linecap="round" stroke-linejoin="round"/>
<path d="M172.526 88.3339C173.689 88.5391 174.799 87.762 175.005 86.5981C175.21 85.4342 174.433 84.3244 173.269 84.1191C172.105 83.9139 170.995 84.6911 170.79 85.8549C170.585 87.0188 171.362 88.1287 172.526 88.3339Z" fill="white"/>
</g>
<g clip-path="url(#clip1_2062_2285)">
<path d="M161.139 109.843C159.62 107.911 158.494 105.7 157.826 103.335C156.776 99.6735 156.835 95.7829 157.996 92.1552C159.158 88.5274 161.368 85.3255 164.349 82.9543C167.33 80.5831 170.948 79.1491 174.744 78.8337C178.54 78.5183 182.344 79.3356 185.675 81.1822C189.007 83.0289 191.716 85.822 193.46 89.2083C195.204 92.5947 195.905 96.4221 195.474 100.207C195.042 103.991 193.499 107.563 191.038 110.47C188.576 113.377 185.308 115.49 181.647 116.54C179.287 117.226 176.816 117.443 174.373 117.178L171.952 121.546L165.781 123.315L167.55 129.486L161.379 131.256L163.149 137.427L152.864 140.376L149.915 130.091L161.139 109.843Z" fill="#00183C" stroke="white" stroke-width="1.76327" stroke-linecap="round" stroke-linejoin="round"/>
<path d="M180.596 93.4665C181.732 93.1408 182.389 91.9558 182.063 90.8197C181.738 89.6837 180.553 89.0268 179.417 89.3525C178.281 89.6783 177.624 90.8633 177.949 91.9994C178.275 93.1354 179.46 93.7923 180.596 93.4665Z" fill="white"/>
</g>
<path opacity="0.3" d="M47.6697 0.000117938L71.2754 64.1509L111.438 206.714L174.863 77.8129L220.145 0.000117099L47.6697 0.000117938Z" fill="url(#paint0_linear_2062_2285)"/>
<defs>
<linearGradient id="paint0_linear_2062_2285" x1="116.776" y1="1.14383" x2="100.286" y2="118.477" gradientUnits="userSpaceOnUse">
<stop stop-color="#00BCFF" stop-opacity="0"/>
<stop offset="0.269342" stop-color="#00BCFF" stop-opacity="0.2"/>
<stop offset="1" stop-color="#00BCFF" stop-opacity="0.5"/>
</linearGradient>
<clipPath id="clip0_2062_2285">
<rect width="68.4765" height="68.4765" fill="white" transform="translate(129.011 57.8457) rotate(10)"/>
</clipPath>
<clipPath id="clip1_2062_2285">
<rect width="68.4765" height="68.4765" fill="white" transform="translate(128.121 85.1394) rotate(-16)"/>
</clipPath>
</defs>
</svg>
