<svg width="24" height="24" viewBox="0 0 24 24" fill="none" xmlns="http://www.w3.org/2000/svg">
<circle cx="12" cy="12" r="12" fill="#FE8E02"/>
<path fill-rule="evenodd" clip-rule="evenodd" d="M14.7545 7.80411C16.1771 8.3258 17.2018 9.09875 16.9669 10.5819C16.7891 11.6616 16.2231 12.1893 15.4581 12.3755C16.476 12.945 16.966 13.8094 16.4419 15.3257C15.7901 17.2274 14.3312 17.3999 12.3988 17.0315L11.9013 19.0385L10.7785 18.7603L11.276 16.7534C11.1538 16.7208 11.0251 16.6909 10.893 16.6601C10.7166 16.6191 10.5342 16.5767 10.3538 16.5249L9.8563 18.5319L8.73556 18.2543L9.23304 16.2473L7.00049 15.6395L7.5554 14.2204C7.5554 14.2204 8.39807 14.452 8.385 14.4375C8.69754 14.5135 8.85037 14.2952 8.91297 14.1424L9.70964 10.9249L10.2894 8.6381C10.3145 8.39091 10.237 8.06753 9.78037 7.94449C9.81145 7.92629 8.95828 7.74086 8.95828 7.74086L9.29075 6.39595L11.5917 6.96593L12.079 5L13.2382 5.28715L12.7509 7.25308C12.9763 7.30207 13.1965 7.35899 13.4191 7.41656L13.4192 7.41658C13.4923 7.43547 13.5656 7.45442 13.6395 7.47319L14.1267 5.50725L15.2546 5.78664L14.7545 7.80411ZM11.6786 10.9653C11.6961 10.9705 11.7149 10.9761 11.7348 10.9821C12.4089 11.1846 14.4076 11.785 14.7443 10.4482C15.0578 9.17763 13.3262 8.78953 12.5216 8.6092C12.4266 8.5879 12.3445 8.5695 12.2802 8.55288L11.6786 10.9653ZM10.7916 14.9286C10.7562 14.918 10.7235 14.9084 10.6939 14.8997L11.2956 12.4873C11.3667 12.5058 11.4566 12.5269 11.5605 12.5513C12.509 12.7741 14.6274 13.2717 14.2981 14.5494C13.9786 15.8761 11.622 15.1756 10.7916 14.9286Z" fill="#FAFAFA"/>
</svg>
