<svg width="156" height="35" viewBox="0 0 156 35" fill="none" xmlns="http://www.w3.org/2000/svg">
<path d="M52.1606 20.329C52.1606 23.4221 49.6966 24.3795 46.2763 24.3795H42.0715V10.3135H45.7492C49.3656 10.3135 51.5722 11.3322 51.5722 13.8975C51.5722 15.6527 50.3095 16.6468 48.9733 16.9291C50.5547 17.236 52.1606 18.0093 52.1606 20.329ZM44.744 16.1068H46.3989C47.8577 16.1068 48.8139 15.4563 48.8139 14.1307C48.8139 12.7069 47.8332 12.3019 46.0066 12.3019H44.744V16.1068ZM49.3533 20.2308C49.3533 18.537 48.152 17.9602 46.5951 17.9602H44.744V22.3665H46.3009C48.0784 22.3788 49.3656 22.0106 49.3533 20.2308Z" fill="white"/>
<path d="M57.5291 22.5873C57.7375 22.5873 57.9459 22.5505 58.1421 22.4891L58.6815 24.3179C58.0931 24.5634 57.4679 24.6861 56.8304 24.6861C55.2245 24.6861 54.2928 23.7288 54.2928 21.9368V9.29457L56.8917 9V21.7527C56.9162 22.3418 57.1001 22.5873 57.5291 22.5873Z" fill="white"/>
<path d="M69.973 18.991C69.973 22.3786 68.0851 24.6983 64.8978 24.6983C61.7105 24.6983 59.8226 22.5381 59.8226 18.991C59.8226 15.6033 61.7105 13.3081 64.8978 13.3081C68.0851 13.3081 69.973 15.4683 69.973 18.991ZM62.5931 18.991C62.5931 21.5808 63.3899 22.71 64.91 22.71C66.4302 22.71 67.227 21.5439 67.227 18.991C67.227 16.438 66.4302 15.2842 64.9223 15.2842C63.4145 15.2842 62.5686 16.4502 62.5686 18.991H62.5931Z" fill="white"/>
<path d="M79.8537 14.5725L78.6768 16.1559C78.0761 15.6403 77.3161 15.358 76.5192 15.358C75.0114 15.358 74.092 16.4627 74.092 19.0402C74.092 21.6178 75.0482 22.5629 76.5192 22.5629C77.3038 22.5506 78.0639 22.2437 78.6523 21.716L79.8537 23.4098C78.873 24.2199 77.6471 24.6617 76.3721 24.6494C73.2584 24.6494 71.3337 22.4892 71.3337 19.0525C71.3337 15.6158 73.2706 13.296 76.3599 13.296C77.6471 13.2592 78.8975 13.7133 79.8537 14.5725Z" fill="white"/>
<path d="M81.6434 24.3793V9.29457L84.2423 9V24.3793H81.6434ZM91.046 24.3793H88.0548L84.3403 18.4878L87.9445 13.6027H90.6782L87.0986 18.3528L91.046 24.3793Z" fill="white"/>
<path d="M100.203 14.5847L99.1853 16.1558C98.413 15.5912 97.4936 15.2598 96.5374 15.2352C95.4341 15.2352 94.8457 15.6648 94.8457 16.3153C94.8457 16.9659 95.2625 17.3586 97.1013 17.8618C99.2957 18.451 100.534 19.347 100.534 21.2495C100.534 23.4833 98.4621 24.6739 95.998 24.6739C94.4289 24.723 92.8965 24.1707 91.7074 23.1519L93.0314 21.6668C93.8404 22.3418 94.8579 22.7223 95.9245 22.7469C97.1013 22.7469 97.8614 22.2437 97.8614 21.4827C97.8614 20.5376 97.4446 20.2553 95.4218 19.6907C93.203 19.077 92.2223 18.0214 92.2223 16.4381C92.2223 14.6461 93.865 13.3082 96.378 13.3082C97.7633 13.2591 99.124 13.7255 100.203 14.5847Z" fill="white"/>
<path d="M106.48 24.6864C104.371 24.6618 103.243 23.4712 103.243 21.1637V15.4686H101.552V13.6152H103.243V11.2341L105.842 10.9272V13.6152H108.343L108.086 15.4686H105.842V21.0901C105.842 22.1579 106.186 22.5752 106.982 22.5752C107.436 22.5507 107.877 22.4157 108.245 22.1457L109.152 23.8395C108.38 24.3918 107.436 24.6864 106.48 24.6864Z" fill="white"/>
<path d="M117.132 13.4676L116.679 16.0083C116.372 15.9224 116.041 15.8856 115.723 15.8856C114.423 15.8856 113.749 16.8429 113.344 18.6472V24.3914H110.746V13.6149H113.001L113.246 15.726C113.749 14.1795 114.791 13.3203 116.054 13.3203C116.421 13.3203 116.777 13.3694 117.132 13.4676Z" fill="white"/>
<path d="M127.43 19.801H120.688C120.872 21.9981 121.914 22.71 123.336 22.71C124.316 22.6977 125.248 22.354 126.02 21.7526L127.099 23.2377C125.984 24.1706 124.574 24.6861 123.103 24.6861C119.768 24.6861 117.978 22.4645 117.978 19.0646C117.978 15.7874 119.707 13.3081 122.759 13.3081C125.812 13.3081 127.504 15.3456 127.504 18.7455C127.491 19.0891 127.455 19.5187 127.43 19.801ZM124.917 18.009C124.917 16.2416 124.292 15.1737 122.809 15.1737C121.583 15.1737 120.823 15.9838 120.7 18.1318H124.929V18.009H124.917Z" fill="white"/>
<path d="M138.61 22.9186L138.059 24.6492C136.882 24.5511 136.11 24.1215 135.68 23.0782C134.957 24.1337 133.744 24.7474 132.469 24.6861C130.311 24.6861 128.987 23.3237 128.987 21.3721C128.987 19.0278 130.752 17.7636 133.891 17.7636H135.239V17.1621C135.239 15.7506 134.602 15.2842 133.229 15.2842C132.26 15.3333 131.292 15.5174 130.385 15.8611L129.772 14.0814C131.022 13.5904 132.346 13.3327 133.682 13.3081C136.551 13.3081 137.813 14.6337 137.813 17.0148V21.5439C137.801 22.4031 138.083 22.71 138.61 22.9186ZM135.227 21.4703V19.2733H134.148C132.456 19.2733 131.61 19.8869 131.61 21.1512C131.61 22.1945 132.138 22.7836 133.131 22.7836C134.025 22.7836 134.847 22.2804 135.227 21.4703Z" fill="white"/>
<path d="M155.012 16.5854V24.3794H152.401V16.9905C152.401 15.6526 151.874 15.2598 151.224 15.2598C150.329 15.2598 149.778 15.8858 149.189 16.8923V24.3917H146.578V17.0027C146.578 15.6649 146.027 15.2721 145.401 15.2721C144.482 15.2721 143.93 15.8981 143.342 16.9045V24.4039H140.743V13.6274H142.999L143.207 15.0389C143.881 13.9711 145.058 13.3328 146.321 13.3451C147.498 13.296 148.564 14.0324 148.92 15.1616C149.741 14.0447 150.734 13.3451 152.156 13.3451C153.86 13.3083 155.012 14.5479 155.012 16.5854Z" fill="white"/>
<path d="M28.2866 9.41829C28.9725 10.381 29.5238 11.4312 29.934 12.542L31.3998 12.064C30.9358 10.7916 30.2971 9.5866 29.5104 8.48926L28.2866 9.41829Z" fill="#00C3FF"/>
<path d="M18.2611 2.47738C17.8711 2.46392 17.4744 2.46392 17.0844 2.47738L17.192 4.01231C17.7837 3.99211 18.3754 4.00558 18.9603 4.05944C19.5453 4.11329 20.1303 4.20754 20.7086 4.34218L21.0985 2.85438C20.4396 2.69954 19.7739 2.59183 19.1015 2.53124C18.8259 2.50431 18.5367 2.48412 18.2611 2.47738Z" fill="#00C3FF"/>
<path d="M3.90568 23.7712C3.29381 22.519 2.85003 21.1928 2.59452 19.8262L0.987511 20.082C1.26991 21.6304 1.76748 23.1317 2.46677 24.5387L3.90568 23.7712Z" fill="#00C3FF"/>
<path d="M3.07809 8.29401L4.50355 9.08841C5.21629 7.89009 6.08367 6.79948 7.09225 5.83678L6.00298 4.625C4.85992 5.70887 3.87823 6.94086 3.07809 8.29401Z" fill="#00C3FF"/>
<path d="M1.06143 13.5381L2.66172 13.8209C2.94412 12.4543 3.41479 11.1348 4.05356 9.89606L2.6281 9.1084C1.90192 10.5087 1.37745 11.9965 1.06143 13.5381Z" fill="#00C3FF"/>
<path d="M11.4902 1.10407L12.129 2.59861C13.4267 2.08696 14.7849 1.75709 16.17 1.62245L16.0557 0C14.4891 0.148107 12.956 0.518374 11.4902 1.10407Z" fill="#00C3FF"/>
<path d="M6.68933 3.99906L7.7786 5.21084C8.84098 4.30873 10.0177 3.55473 11.2817 2.96231L10.643 1.46777C9.21079 2.12079 7.87946 2.97577 6.68933 3.99906Z" fill="#00C3FF"/>
<path d="M30.8014 27.9516L29.5306 26.9351C28.6296 27.9987 27.5874 28.9345 26.4376 29.7222L27.3117 31.1023C28.6162 30.2203 29.7928 29.1634 30.8014 27.9516Z" fill="#00C3FF"/>
<path d="M10.9929 30.8533C9.74229 30.2407 8.57905 29.4598 7.53685 28.5308L6.42741 29.7224C7.59736 30.7726 8.91525 31.6477 10.3273 32.3344L10.9929 30.8533Z" fill="#00C3FF"/>
<path d="M34.7212 18.5675C34.9297 16.3728 34.7078 14.1579 34.069 12.0508L32.5225 12.5624C33.4101 15.5515 33.3764 18.7358 32.4351 21.7047L33.9682 22.25C34.3514 21.0584 34.6069 19.8197 34.7212 18.5675Z" fill="#00C3FF"/>
<path d="M25.2269 29.4059L24.4066 28.1133C23.3913 28.7192 22.302 29.1904 21.159 29.5068L21.522 31.0014C22.8265 30.6378 24.0704 30.106 25.2269 29.4059Z" fill="#00C3FF"/>
<path d="M5.0754 18.6079C4.9611 17.6519 4.94765 16.6825 5.04178 15.7198C5.06195 15.4841 5.08885 15.2822 5.12247 15.0735L3.60959 14.8042C3.57597 15.06 3.54235 15.3158 3.51546 15.5784C3.4146 16.6623 3.42805 17.7596 3.56253 18.8435L5.0754 18.6079Z" fill="#00C3FF"/>
<path d="M22.1343 2.17434C23.4724 2.5648 24.7499 3.14376 25.9266 3.8843L26.8343 2.52441C25.503 1.68289 24.0641 1.03661 22.5512 0.592285L22.1343 2.17434Z" fill="#00C3FF"/>
<path d="M15.5178 33.8898L15.6725 32.2673C14.3613 32.0923 13.0771 31.7422 11.8533 31.2373L11.1742 32.7318C12.5593 33.3041 14.0251 33.6945 15.5178 33.8898Z" fill="#00C3FF"/>
<path d="M7.55028 27.2851L8.60593 26.1675C7.77217 25.326 7.05271 24.3835 6.46773 23.3535L5.10278 24.0739C5.76845 25.2452 6.59549 26.3291 7.55028 27.2851Z" fill="#00C3FF"/>
<path d="M27.6006 3.0498L26.6862 4.4097C27.8225 5.21755 28.8378 6.18025 29.7186 7.26412L31.0231 6.26777C30.0347 5.03578 28.8849 3.95864 27.6006 3.0498Z" fill="#00C3FF"/>
<path d="M29.1608 25.6362C29.9677 24.5524 30.6266 23.3675 31.1174 22.1019L29.6718 21.5835C29.2415 22.6876 28.6632 23.731 27.9572 24.6803L29.1608 25.6362Z" fill="#00C3FF"/>
<path d="M30.3641 13.2759L28.9117 13.7606C29.3151 15.1541 29.4496 16.615 29.3151 18.0557C29.2412 18.8568 29.0865 19.6512 28.8512 20.4254L30.2968 20.9371C30.5725 20.0484 30.7608 19.1261 30.8482 18.1971C31.0028 16.541 30.8347 14.8714 30.3641 13.2759Z" fill="#7EE0FF"/>
<path d="M15.8806 29.9983L16.0218 28.4701C15.1275 28.3354 14.2467 28.0998 13.4062 27.7632L12.7741 29.1567C13.7693 29.5607 14.8115 29.8434 15.8806 29.9983Z" fill="#7EE0FF"/>
<path d="M26.4109 13.72L27.7825 13.2555C27.4531 12.387 27.016 11.559 26.4781 10.7915L25.3283 11.6667C25.7721 12.3062 26.1352 12.9929 26.4109 13.72Z" fill="#7EE0FF"/>
<path d="M18.1133 6.28125H17.3602L17.4611 7.72193C18.2343 7.70173 19.0009 7.76905 19.7607 7.93735L20.1305 6.5438C19.6732 6.44282 19.216 6.36877 18.7521 6.32837C18.5436 6.30818 18.3285 6.29471 18.1133 6.28125Z" fill="#7EE0FF"/>
<path d="M6.4874 10.1922L7.83217 10.9395C8.33647 10.1047 8.94162 9.34394 9.6409 8.66399L8.60542 7.51953C7.78511 8.31392 7.07237 9.2093 6.4874 10.1922Z" fill="#7EE0FF"/>
<path d="M21.1659 5.86388C22.0938 6.14663 22.9881 6.55056 23.8151 7.05547L24.6691 5.77637C23.7008 5.17721 22.6519 4.71269 21.5626 4.38281L21.1659 5.86388Z" fill="#7EE0FF"/>
<path d="M26.6863 9.56625L27.9033 8.63722C27.1838 7.74858 26.3434 6.96092 25.4222 6.29443L24.5683 7.57354C25.3617 8.14577 26.0677 8.81225 26.6863 9.56625Z" fill="#7EE0FF"/>
<path d="M25.046 22.3644L26.1756 23.2665C26.727 22.5125 27.1775 21.6979 27.5272 20.8294L26.1689 20.3447C25.8731 21.0583 25.4965 21.7383 25.046 22.3644Z" fill="#7EE0FF"/>
<path d="M10.1454 25.7642L9.09647 26.8817C9.95713 27.6357 10.9052 28.2753 11.934 28.7802L12.566 27.3866C11.6919 26.9558 10.8783 26.4037 10.1454 25.7642Z" fill="#7EE0FF"/>
<path d="M8.75347 18.0288C8.68623 17.3758 8.67951 16.716 8.74003 16.063C8.75347 15.9486 8.76692 15.8274 8.78037 15.7197L7.36163 15.4639C7.34146 15.6187 7.32128 15.7735 7.30784 15.9284C7.23387 16.7026 7.24732 17.4768 7.32801 18.251L8.75347 18.0288Z" fill="#7EE0FF"/>
<path d="M6.35992 19.2271L4.84032 19.4627C5.05549 20.5869 5.41858 21.6843 5.91615 22.7143L7.27437 21.994C6.85077 21.112 6.54819 20.183 6.35992 19.2271Z" fill="#7EE0FF"/>
<path d="M24.3867 26.518L25.2137 27.8105C26.1551 27.1642 27.009 26.3968 27.7486 25.5351L26.545 24.5791C25.913 25.3129 25.1868 25.9659 24.3867 26.518Z" fill="#7EE0FF"/>
<path d="M7.38196 11.7474L6.04391 11.0068C5.51945 12.0234 5.13618 13.1073 4.90085 14.2248L6.41372 14.4941C6.61544 13.5381 6.93819 12.6158 7.38196 11.7474Z" fill="#7EE0FF"/>
<path d="M20.2784 25.8853L20.6146 27.2788C21.5088 27.023 22.3695 26.6595 23.1764 26.1882L22.3964 24.9697C21.7307 25.3535 21.018 25.6631 20.2784 25.8853Z" fill="#7EE0FF"/>
<path d="M9.74893 21.6167L8.47139 22.2832C8.93534 23.091 9.50687 23.8316 10.1591 24.4981L11.1542 23.4411C10.6163 22.8891 10.1456 22.2764 9.74893 21.6167Z" fill="#7EE0FF"/>
<path d="M17.3266 28.5912C17.1988 28.5912 17.0711 28.5777 16.9433 28.5643L16.8021 30.0925C18.0057 30.18 19.216 30.0992 20.3927 29.8568L20.0363 28.3623C19.1487 28.5508 18.2343 28.6249 17.3266 28.5912Z" fill="#7EE0FF"/>
<path d="M9.29787 6.90027L10.3266 8.038C11.073 7.41191 11.8933 6.88681 12.7741 6.46941L12.169 5.05566C11.1335 5.54038 10.172 6.15973 9.29787 6.90027Z" fill="#7EE0FF"/>
<path d="M13.0232 4.69252L13.6284 6.10627C14.5361 5.7562 15.4841 5.52057 16.4524 5.41286L16.3381 3.87793C15.2017 4.00584 14.0856 4.27513 13.0232 4.69252Z" fill="#7EE0FF"/>
<path d="M16.8959 34.0041C18.3416 34.0512 19.7872 33.9301 21.2127 33.654L20.8765 32.0854C19.646 32.3413 18.3886 32.4423 17.1245 32.3951C16.9228 32.3951 16.7749 32.3682 16.5732 32.3547L16.432 33.9974C16.5866 34.0041 16.7413 34.0041 16.8959 34.0041Z" fill="#00C3FF"/>
</svg>
