<svg width="24" height="24" viewBox="0 0 24 24" fill="none" xmlns="http://www.w3.org/2000/svg">
<path d="M16.5 7.5C16.5 7.30109 16.579 7.11032 16.7197 6.96967C16.8603 6.82902 17.0511 6.75 17.25 6.75H20.25C20.4489 6.75 20.6397 6.82902 20.7803 6.96967C20.921 7.11032 21 7.30109 21 7.5C21 7.69891 20.921 7.88968 20.7803 8.03033C20.6397 8.17098 20.4489 8.25 20.25 8.25H17.25C17.0511 8.25 16.8603 8.17098 16.7197 8.03033C16.579 7.88968 16.5 7.69891 16.5 7.5ZM3.75 8.25H13.5V9.75C13.5 9.94891 13.579 10.1397 13.7197 10.2803C13.8603 10.421 14.0511 10.5 14.25 10.5C14.4489 10.5 14.6397 10.421 14.7803 10.2803C14.921 10.1397 15 9.94891 15 9.75V5.25C15 5.05109 14.921 4.86032 14.7803 4.71967C14.6397 4.57902 14.4489 4.5 14.25 4.5C14.0511 4.5 13.8603 4.57902 13.7197 4.71967C13.579 4.86032 13.5 5.05109 13.5 5.25V6.75H3.75C3.55109 6.75 3.36032 6.82902 3.21967 6.96967C3.07902 7.11032 3 7.30109 3 7.5C3 7.69891 3.07902 7.88968 3.21967 8.03033C3.36032 8.17098 3.55109 8.25 3.75 8.25ZM20.25 15.75H11.25C11.0511 15.75 10.8603 15.829 10.7197 15.9697C10.579 16.1103 10.5 16.3011 10.5 16.5C10.5 16.6989 10.579 16.8897 10.7197 17.0303C10.8603 17.171 11.0511 17.25 11.25 17.25H20.25C20.4489 17.25 20.6397 17.171 20.7803 17.0303C20.921 16.8897 21 16.6989 21 16.5C21 16.3011 20.921 16.1103 20.7803 15.9697C20.6397 15.829 20.4489 15.75 20.25 15.75ZM8.25 13.5C8.05109 13.5 7.86032 13.579 7.71967 13.7197C7.57902 13.8603 7.5 14.0511 7.5 14.25V15.75H3.75C3.55109 15.75 3.36032 15.829 3.21967 15.9697C3.07902 16.1103 3 16.3011 3 16.5C3 16.6989 3.07902 16.8897 3.21967 17.0303C3.36032 17.171 3.55109 17.25 3.75 17.25H7.5V18.75C7.5 18.9489 7.57902 19.1397 7.71967 19.2803C7.86032 19.421 8.05109 19.5 8.25 19.5C8.44891 19.5 8.63968 19.421 8.78033 19.2803C8.92098 19.1397 9 18.9489 9 18.75V14.25C9 14.0511 8.92098 13.8603 8.78033 13.7197C8.63968 13.579 8.44891 13.5 8.25 13.5Z" fill="white"/>
</svg>
