<svg width="15" height="17" viewBox="0 0 15 17" fill="none" xmlns="http://www.w3.org/2000/svg">
<path d="M13.75 5.625H11.25V3.75C11.25 2.75544 10.8549 1.80161 10.1517 1.09835C9.44839 0.395088 8.49456 0 7.5 0C6.50544 0 5.55161 0.395088 4.84835 1.09835C4.14509 1.80161 3.75 2.75544 3.75 3.75V5.625H1.25C0.918479 5.625 0.600537 5.7567 0.366116 5.99112C0.131696 6.22554 0 6.54348 0 6.875V15.625C0 15.9565 0.131696 16.2745 0.366116 16.5089C0.600537 16.7433 0.918479 16.875 1.25 16.875H13.75C14.0815 16.875 14.3995 16.7433 14.6339 16.5089C14.8683 16.2745 15 15.9565 15 15.625V6.875C15 6.54348 14.8683 6.22554 14.6339 5.99112C14.3995 5.7567 14.0815 5.625 13.75 5.625ZM5 3.75C5 3.08696 5.26339 2.45107 5.73223 1.98223C6.20107 1.51339 6.83696 1.25 7.5 1.25C8.16304 1.25 8.79893 1.51339 9.26777 1.98223C9.73661 2.45107 10 3.08696 10 3.75V5.625H5V3.75ZM13.75 15.625H1.25V6.875H13.75V15.625ZM8.4375 11.25C8.4375 11.4354 8.38252 11.6167 8.2795 11.7708C8.17649 11.925 8.03007 12.0452 7.85877 12.1161C7.68746 12.1871 7.49896 12.2057 7.3171 12.1695C7.13525 12.1333 6.9682 12.044 6.83709 11.9129C6.70598 11.7818 6.61669 11.6148 6.58051 11.4329C6.54434 11.251 6.56291 11.0625 6.63386 10.8912C6.70482 10.7199 6.82498 10.5735 6.97915 10.4705C7.13332 10.3675 7.31458 10.3125 7.5 10.3125C7.74864 10.3125 7.9871 10.4113 8.16291 10.5871C8.33873 10.7629 8.4375 11.0014 8.4375 11.25Z" fill="#A0A0A0"/>
</svg>
