<svg width="20" height="20" viewBox="0 0 20 20" fill="none" xmlns="http://www.w3.org/2000/svg">
<path d="M14.375 6.99766V6.5625C14.375 4.60312 11.4195 3.125 7.5 3.125C3.58047 3.125 0.625 4.60312 0.625 6.5625V9.6875C0.625 11.3195 2.67578 12.6164 5.625 13.0047V13.4375C5.625 15.3969 8.58047 16.875 12.5 16.875C16.4195 16.875 19.375 15.3969 19.375 13.4375V10.3125C19.375 8.69531 17.3891 7.39687 14.375 6.99766ZM18.125 10.3125C18.125 11.3453 15.7195 12.5 12.5 12.5C12.2086 12.5 11.9195 12.4898 11.6344 12.4711C13.3195 11.857 14.375 10.8594 14.375 9.6875V8.26094C16.7086 8.60859 18.125 9.55234 18.125 10.3125ZM5.625 11.7383V9.87969C6.2467 9.96069 6.87304 10.0009 7.5 10C8.12696 10.0009 8.7533 9.96069 9.375 9.87969V11.7383C8.75422 11.83 8.12751 11.8757 7.5 11.875C6.87249 11.8757 6.24578 11.83 5.625 11.7383ZM13.125 8.58828V9.6875C13.125 10.343 12.1555 11.0469 10.625 11.4742V9.64844C11.6336 9.40391 12.4875 9.03984 13.125 8.58828ZM7.5 4.375C10.7195 4.375 13.125 5.52969 13.125 6.5625C13.125 7.59531 10.7195 8.75 7.5 8.75C4.28047 8.75 1.875 7.59531 1.875 6.5625C1.875 5.52969 4.28047 4.375 7.5 4.375ZM1.875 9.6875V8.58828C2.5125 9.03984 3.36641 9.40391 4.375 9.64844V11.4742C2.84453 11.0469 1.875 10.343 1.875 9.6875ZM6.875 13.4375V13.1117C7.08047 13.1195 7.28828 13.125 7.5 13.125C7.80312 13.125 8.09922 13.1148 8.38984 13.0977C8.7127 13.2132 9.04157 13.3113 9.375 13.3914V15.2242C7.84453 14.7969 6.875 14.093 6.875 13.4375ZM10.625 15.4883V13.625C11.2465 13.7085 11.8729 13.7503 12.5 13.75C13.127 13.7509 13.7533 13.7107 14.375 13.6297V15.4883C13.1316 15.6706 11.8684 15.6706 10.625 15.4883ZM15.625 15.2242V13.3984C16.6336 13.1539 17.4875 12.7898 18.125 12.3383V13.4375C18.125 14.093 17.1555 14.7969 15.625 15.2242Z" fill="#A0A0A0"/>
</svg>
