<svg width="20" height="20" viewBox="0 0 20 20" fill="none" xmlns="http://www.w3.org/2000/svg">
<path d="M16.8586 9.23208C16.8349 9.1319 16.7869 9.03913 16.7187 8.96199C16.6506 8.88484 16.5644 8.82573 16.4679 8.78989L11.9672 7.10161L13.1125 1.3727C13.1384 1.23959 13.1203 1.10166 13.061 0.979716C13.0017 0.857774 12.9043 0.758439 12.7835 0.6967C12.6628 0.634962 12.5252 0.61417 12.3917 0.637463C12.2581 0.660755 12.1357 0.726868 12.0429 0.825824L3.29293 10.2008C3.22187 10.2757 3.17046 10.367 3.1433 10.4666C3.11613 10.5662 3.11407 10.671 3.13728 10.7716C3.1605 10.8722 3.20827 10.9655 3.27633 11.0431C3.34439 11.1207 3.43061 11.1803 3.52731 11.2165L8.02965 12.9047L6.88747 18.6274C6.86153 18.7605 6.87959 18.8984 6.93893 19.0204C6.99826 19.1423 7.09565 19.2416 7.21639 19.3034C7.33713 19.3651 7.47468 19.3859 7.60828 19.3626C7.74187 19.3393 7.86427 19.2732 7.957 19.1743L16.707 9.79926C16.7768 9.72436 16.8271 9.63347 16.8535 9.53457C16.8799 9.43567 16.8817 9.3318 16.8586 9.23208ZM8.5445 16.7188L9.36246 12.6266C9.39174 12.4815 9.36854 12.3307 9.29701 12.201C9.22547 12.0714 9.11024 11.9714 8.97184 11.9188L4.84371 10.368L11.4547 3.2852L10.6375 7.37739C10.6082 7.52252 10.6314 7.67333 10.7029 7.80296C10.7745 7.93258 10.8897 8.0326 11.0281 8.0852L15.1531 9.63208L8.5445 16.7188Z" fill="#A0A0A0"/>
</svg>
