<svg width="440" height="440" viewBox="0 0 440 440" fill="none" xmlns="http://www.w3.org/2000/svg">
<path d="M36.9162 344.866L94.4135 356.028C96.515 356.436 98.6597 356.576 100.796 356.445L385.517 338.933C396.346 338.267 404.862 329.421 405.116 318.574L409.709 122.427C409.881 115.072 405.147 108.497 398.116 106.329L338.672 87.9957" stroke="white" stroke-width="0.888824"/>
<path d="M336.538 86.6901C338.079 86.3706 339.677 86.4451 341.184 86.9098L398.64 104.63L399.003 104.747C406.473 107.221 411.512 114.219 411.491 122.088L411.486 122.468L406.894 318.616C406.622 330.202 397.663 339.684 386.175 340.667L385.626 340.708L100.905 358.219C98.9046 358.342 96.8972 358.243 94.92 357.923L94.0743 357.773L37.7267 346.834C36.939 346.681 36.0692 346.42 35.2531 345.934L34.9073 345.713C32.0202 343.712 30.4749 340.89 29.7872 338.898L29.6613 338.511C29.3889 337.625 29.3804 336.755 29.4327 336.034L41.8546 164.912L41.8898 164.535C42.3288 160.658 45.1436 157.445 48.9611 156.518L336.231 86.7594L336.538 86.6901Z" fill="url(#paint0_linear_2262_1729)" stroke="white" stroke-width="3.5553"/>
<path d="M31.0753 334.466L42.0629 172.352C42.5713 164.851 47.8578 158.533 55.1516 156.709L330.812 87.7941C340.23 85.4396 349.296 92.7204 349.029 102.425L343.527 302.713C343.168 315.776 332.932 326.422 319.894 327.293L42.4278 345.83C35.9837 346.26 30.6386 340.91 31.0753 334.466Z" fill="#1C1A1A" stroke="white" stroke-width="0.888824"/>
<path d="M379.008 237.331L381.667 184.16C381.711 183.272 382.514 182.618 383.393 182.753L388.097 183.476C388.199 183.492 388.298 183.518 388.395 183.554C389.77 184.069 392.307 185 392.5 185C392.687 185 393.762 186.601 394.378 187.559C394.459 187.686 394.52 187.824 394.56 187.969L395.192 190.288C395.231 190.429 395.248 190.574 395.245 190.72L394 241.25L393.556 244.356C393.519 244.614 393.416 244.858 393.255 245.064L391.974 246.712C391.827 246.901 391.636 247.052 391.419 247.153L388.91 248.311C388.643 248.434 388.345 248.476 388.054 248.431L385.639 248.06C385.384 248.021 385.143 247.916 384.94 247.757L381.98 245.431C381.828 245.311 381.701 245.164 381.605 244.996L379.879 241.977C379.794 241.827 379.735 241.663 379.705 241.493L379.029 237.667C379.01 237.556 379.003 237.443 379.008 237.331Z" fill="#1C1A1A"/>
<path d="M381.707 182.433L390.031 184.003C390.59 184.109 391.145 184.263 391.637 184.549C394.02 185.931 395.484 188.522 395.396 191.32L393.796 242.337C393.672 246.295 389.978 249.164 386.113 248.305M399.974 240.7L401.007 183.369C401.069 179.937 398.809 176.895 395.506 175.962L391.344 174.787C386.674 173.468 381.991 176.83 381.745 181.676L378.961 236.718C378.664 242.577 382.649 247.792 388.38 249.046L389.188 249.223C394.667 250.421 399.873 246.308 399.974 240.7ZM285.922 267.08L319.739 262.03C323.364 261.489 326.078 258.424 326.176 254.76L328.858 154.746C328.99 149.842 324.485 146.115 319.693 147.163L287.049 154.299C283.688 155.034 281.248 157.945 281.113 161.382L277.258 259.31C277.071 264.044 281.237 267.779 285.922 267.08Z" stroke="white" stroke-width="0.888824"/>
<path d="M140.81 345.797L182.588 351.363C183.789 351.523 183.723 353.283 182.513 353.352L98.2023 358.195C97.5699 358.232 96.9355 358.188 96.314 358.066L70.6273 353.025C70.5426 353.008 70.4595 352.984 70.3789 352.953C68.8828 352.378 69.2212 350.171 70.8209 350.07L139.336 345.746C139.828 345.715 140.321 345.732 140.81 345.797Z" fill="#1C1A1A" stroke="white" stroke-width="0.888824"/>
<path d="M283.426 343.178L273.236 340.286C272.274 340.013 272.425 338.606 273.423 338.544L303.061 336.703C303.69 336.664 304.321 336.704 304.94 336.821L319.331 339.556C320.357 339.751 320.264 341.249 319.222 341.316L285.972 343.449C285.114 343.505 284.253 343.413 283.426 343.178Z" stroke="white" stroke-width="0.888824"/>
<defs>
<linearGradient id="paint0_linear_2262_1729" x1="355.75" y1="202.5" x2="40.75" y2="269.25" gradientUnits="userSpaceOnUse">
<stop stop-color="#5C5C5C"/>
<stop offset="1" stop-color="#3A3A3A"/>
</linearGradient>
</defs>
</svg>
