<svg width="20" height="20" viewBox="0 0 20 20" fill="none" xmlns="http://www.w3.org/2000/svg">
<path d="M16.9195 3.08049C15.9268 2.08636 14.628 1.45571 13.2329 1.2903C11.8377 1.1249 10.4275 1.43439 9.2298 2.16883C8.03212 2.90328 7.11682 4.01984 6.63161 5.33834C6.1464 6.65683 6.11958 8.10035 6.55548 9.43596L2.24141 13.75C2.12483 13.8657 2.03241 14.0033 1.96951 14.155C1.9066 14.3067 1.87448 14.4694 1.87501 14.6336V16.875C1.87501 17.2065 2.0067 17.5245 2.24112 17.7589C2.47554 17.9933 2.79349 18.125 3.12501 18.125H5.62501C5.79077 18.125 5.94974 18.0592 6.06695 17.942C6.18416 17.8248 6.25001 17.6658 6.25001 17.5V16.25H7.50001C7.66577 16.25 7.82474 16.1842 7.94195 16.067C8.05916 15.9498 8.12501 15.7908 8.12501 15.625V14.375H9.37501C9.45711 14.3751 9.53842 14.359 9.61429 14.3276C9.69016 14.2962 9.75911 14.2502 9.81719 14.1922L10.5641 13.4446C11.1892 13.6479 11.8426 13.751 12.5 13.75H12.5078C13.7433 13.7485 14.9507 13.3809 15.9773 12.6935C17.004 12.0062 17.8039 11.03 18.276 9.88822C18.7481 8.74647 18.8712 7.49042 18.6298 6.27873C18.3883 5.06705 17.7932 3.9541 16.9195 3.08049ZM17.5 7.66409C17.4148 10.3274 15.1758 12.4969 12.5086 12.5H12.5C11.8673 12.5011 11.2402 12.3815 10.6524 12.1477C10.5373 12.0978 10.41 12.0836 10.2868 12.107C10.1637 12.1304 10.0504 12.1903 9.96173 12.2789L9.11641 13.125H7.50001C7.33425 13.125 7.17528 13.1909 7.05806 13.3081C6.94085 13.4253 6.87501 13.5843 6.87501 13.75V15H5.62501C5.45925 15 5.30027 15.0659 5.18306 15.1831C5.06585 15.3003 5.00001 15.4593 5.00001 15.625V16.875H3.12501V14.6336L7.7211 10.0383C7.80972 9.94963 7.86962 9.83636 7.89303 9.71319C7.91643 9.59003 7.90226 9.46268 7.85235 9.34768C7.61778 8.75783 7.49818 8.12855 7.50001 7.49377C7.50001 4.82659 9.67266 2.58752 12.3359 2.50237C13.0201 2.47954 13.7016 2.59742 14.3383 2.84871C14.975 3.1 15.5533 3.47934 16.0374 3.96325C16.5216 4.44715 16.9012 5.02531 17.1528 5.6619C17.4043 6.29849 17.5225 6.97996 17.5 7.66409ZM15 5.93752C15 6.12294 14.945 6.3042 14.842 6.45837C14.739 6.61254 14.5926 6.7327 14.4213 6.80366C14.25 6.87462 14.0615 6.89318 13.8796 6.85701C13.6978 6.82084 13.5307 6.73155 13.3996 6.60044C13.2685 6.46932 13.1792 6.30228 13.143 6.12042C13.1068 5.93856 13.1254 5.75006 13.1964 5.57876C13.2673 5.40745 13.3875 5.26103 13.5417 5.15802C13.6958 5.05501 13.8771 5.00002 14.0625 5.00002C14.3111 5.00002 14.5496 5.0988 14.7254 5.27461C14.9012 5.45043 15 5.68888 15 5.93752Z" fill="#A0A0A0"/>
</svg>
