<svg width="207" height="190" viewBox="0 0 207 190" fill="none" xmlns="http://www.w3.org/2000/svg">
<path d="M58.7393 152.91C71.9518 163.717 88.6195 169.634 105.652 169.536H105.774C107.818 169.536 109.886 169.438 111.93 169.267C129.498 167.653 146.02 159.78 158.38 147.091C170.741 134.401 178.236 117.653 179.452 99.927C179.577 97.9193 179.631 95.8758 179.598 93.8119C179.589 93.2285 179.108 92.7658 178.525 92.769L167.52 92.8304C166.913 92.8337 166.43 93.3391 166.441 93.9462C166.495 96.8081 166.341 99.6826 165.996 102.519C164.683 113.326 160.497 123.595 153.928 132.225C142.37 147.433 124.802 156.211 105.749 156.309C92.172 156.382 79.2758 152.03 68.4479 143.717C66.112 141.932 63.8978 139.976 61.8538 137.873L57.9479 133.864C57.2864 133.185 57.7635 132.045 58.7114 132.039L64.2871 132.005L83.6018 131.913C84.1958 131.91 84.675 131.426 84.6717 130.832L84.6105 119.755C84.6073 119.161 84.1234 118.683 83.5298 118.686L34.9466 118.943C34.3529 118.947 33.8741 119.43 33.8772 120.024L34.1336 168.852C34.1367 169.446 34.6208 169.924 35.2146 169.921L46.2287 169.86C46.8221 169.856 47.3007 169.373 47.2977 168.779L47.2057 150.245L47.1723 144.501C47.1667 143.54 48.3285 143.055 49.0078 143.735L53.0455 147.776C54.8704 149.585 56.7684 151.321 58.7393 152.91Z" fill="#00183C" stroke="white" stroke-miterlimit="10"/>
<path d="M107.623 33.6669C121.2 33.5936 134.096 37.9457 144.924 46.2586C147.26 48.0435 149.474 49.9995 151.518 52.1266L155.409 56.1373C156.068 56.8169 155.591 57.9552 154.644 57.961L149.085 57.9946L129.77 58.0872C129.176 58.0901 128.697 58.5742 128.7 59.1682L128.762 70.245C128.765 70.8386 129.249 71.3173 129.842 71.3141L178.426 71.0566C179.02 71.0534 179.498 70.5699 179.495 69.9764L179.262 21.1487C179.26 20.5546 178.775 20.0754 178.181 20.0787L167.168 20.1401C166.574 20.1434 166.096 20.627 166.099 21.2205L166.191 39.755L166.224 45.4986C166.23 46.4596 165.068 46.9446 164.389 46.2648L160.351 42.2244C158.55 40.4151 156.628 38.7036 154.657 37.0899C142.661 27.3099 128.208 21.6131 112.83 20.5862C111.054 20.464 109.253 20.4151 107.452 20.4151C88.7651 20.5373 70.9051 27.6767 57.2059 40.5863C43.4338 53.5447 35.1608 71.0998 33.9198 90.024C33.7954 92.0254 33.7416 94.0446 33.7738 96.0665C33.783 96.6496 34.2633 97.1119 34.8465 97.1087L45.8515 97.0473C46.4589 97.044 46.9419 96.5384 46.9305 95.9311C46.8773 93.0938 47.0313 90.2439 47.3757 87.4323C48.6896 76.6255 52.8748 66.3565 59.4445 57.7257C71.0024 42.5422 88.5704 33.7647 107.623 33.6669Z" fill="#00183C" stroke="white" stroke-miterlimit="10"/>
<path d="M13.709 78.8691C16.8197 66.3681 29.4683 58.7798 41.9385 61.8906L41.9395 61.8896C54.4376 64.9774 62.0471 77.6352 58.9365 90.1357C55.8253 102.639 43.1739 110.228 30.6797 107.115L30.6787 107.114C18.2088 104.001 10.5991 91.3464 13.71 78.8691H13.709Z" fill="#FED723" stroke="white" stroke-width="2.5" stroke-miterlimit="10"/>
<path d="M26.524 86.3685L40.3923 71.018C40.5599 70.8324 40.8639 70.9963 40.801 71.2383L38.1474 81.4538C38.1081 81.6052 38.2223 81.7529 38.3788 81.7529H45.9444C46.1515 81.7529 46.2607 81.9983 46.122 82.1521L31.6752 98.1765C31.5039 98.3666 31.194 98.1908 31.2692 97.9462L34.6098 87.0771C34.657 86.9234 34.5421 86.7678 34.3813 86.7678H26.7014C26.4943 86.7678 26.3852 86.5222 26.524 86.3685Z" fill="white"/>
<path d="M170.908 83.4907C171.318 83.3129 171.793 83.2886 172.258 83.4839C172.656 83.651 172.956 83.943 173.186 84.2212L173.187 84.2202C174.81 86.1608 176.595 87.9514 178.44 89.7505C180.273 91.537 182.178 93.3459 183.969 95.269C187.296 98.8348 190.347 102.72 192.136 107.546C196.145 118.375 192.78 130.204 181.685 135.96L181.674 135.965L181.663 135.971C178.05 137.761 174.745 138.43 170.104 138.177C161.169 137.788 152.888 131.503 150.347 122.932C148.389 116.331 149.463 110.004 152.579 104.074L152.58 104.073C154.864 99.738 158.095 96.2524 161.396 92.9849C164.297 90.0943 167.21 87.4581 169.82 84.4263L169.828 84.4175L169.836 84.4077C169.884 84.3543 170.066 84.14 170.183 84.019C170.317 83.8786 170.562 83.641 170.908 83.4907Z" fill="#22E1C9" stroke="white" stroke-width="2.5" stroke-miterlimit="10"/>
<path d="M180.6 112.483C181.011 109.703 178.908 108.232 176.049 107.221L176.987 103.476L174.723 102.902L173.808 106.555C173.214 106.394 172.596 106.256 171.979 106.118L172.894 102.442L170.63 101.868L169.692 105.613C169.189 105.498 168.709 105.383 168.229 105.268V105.245L165.096 104.464L164.502 106.9C164.502 106.9 166.194 107.29 166.148 107.313C167.063 107.543 167.246 108.163 167.2 108.646C166.355 112.079 165.491 115.479 164.639 118.916C164.525 119.192 164.25 119.629 163.587 119.468C163.61 119.491 161.941 119.054 161.941 119.054L160.82 121.674L163.77 122.409C164.319 122.547 164.868 122.685 165.394 122.823L164.456 126.614L166.72 127.188L167.657 123.443C168.275 123.604 168.869 123.765 169.464 123.925L168.526 127.671L170.79 128.245L171.728 124.454C175.615 125.189 178.519 124.89 179.754 121.375C180.737 118.549 179.708 116.895 177.673 115.838C179.182 115.493 180.302 114.528 180.6 112.483ZM175.409 119.813C174.7 122.639 169.944 121.122 168.412 120.732L169.67 115.7C171.202 116.09 176.141 116.849 175.409 119.813ZM176.118 112.437C175.478 115.01 171.522 113.701 170.241 113.379L171.385 108.807C172.642 109.151 176.781 109.749 176.118 112.437Z" fill="white"/>
</svg>
